<svg width="198" height="88" viewBox="0 0 198 88" fill="none" xmlns="http://www.w3.org/2000/svg">
<path d="M49 36.0001C49 36.0001 92.4251 53.9999 118.126 36C143.826 18 197 36.0001 197 36.0001" stroke="black"/>
<path d="M49 44.0001C49 44.0001 92.4251 61.9999 118.126 44C143.826 26 197 44.0001 197 44.0001" stroke="black"/>
<path d="M49 52.0001C49 52.0001 92.4251 69.9999 118.126 52C143.826 34 197 52.0001 197 52.0001" stroke="black"/>
<path d="M49 60.0001C49 60.0001 92.4251 77.9999 118.126 60C143.826 42 197 60.0001 197 60.0001" stroke="black"/>
<path d="M49 68.0001C49 68.0001 92.4251 85.9999 118.126 68C143.826 50 197 68.0001 197 68.0001" stroke="black"/>
<circle cx="44" cy="44" r="43" stroke="black" stroke-width="2"/>
<circle cx="44" cy="44" r="39.5" stroke="black"/>
</svg>
