<svg width="123" height="72" viewBox="0 0 123 72" fill="none" xmlns="http://www.w3.org/2000/svg">
<path d="M43.5462 4.33475V35.659H47.3567V0.501919H36.6964L36.7191 35.659L40.5749 35.6819V4.33475H43.5462Z" fill="white"/>
<path d="M56.0892 4.33475V0.501919H48.4908V35.659H56.0892V31.8262H52.3013V20.0083H56.0892V16.1755H52.3013V4.33475H56.0892Z" fill="white"/>
<path d="M67.9063 0.296588H67.8836V0.273774L64.0277 0.296588L64.0051 31.849H61.1245V0.273774L57.2686 0.296588L57.2459 35.6819H74.6654V0.296588H70.8549V31.849H67.9063V0.296588Z" fill="white"/>
<path d="M83.3979 4.33475V0.501919H75.7995V35.659H83.3979V31.8262H79.61V20.0083H83.3979V16.1755H79.61V4.33475H83.3979Z" fill="white"/>
<path d="M95.5325 35.659L91.9488 18.0691L95.5325 0.501919H91.7447L90.0436 9.99275L88.3651 0.501919H84.5546L88.1383 18.0919L84.5546 35.659H88.3651L90.0436 26.1682L91.7447 35.659H95.5325Z" fill="white"/>
<path d="M100.522 4.69979C100.522 4.34996 100.651 4.05337 100.908 3.81002C101.15 3.55146 101.445 3.42217 101.793 3.42217C102.14 3.42217 102.443 3.55146 102.7 3.81002C102.942 4.05337 103.063 4.34996 103.063 4.69979V31.484C103.063 31.8338 102.942 32.1304 102.7 32.3738C102.443 32.6171 102.14 32.7388 101.793 32.7388C101.445 32.7388 101.15 32.6171 100.908 32.3738C100.651 32.1304 100.522 31.8338 100.522 31.484V4.69979ZM101.793 0C100.386 0 99.1767 0.501919 98.1636 1.50576C97.1656 2.5248 96.6666 3.74158 96.6666 5.15608V31.0277C96.6666 32.4422 97.1656 33.659 98.1636 34.678C99.1767 35.6819 100.386 36.1838 101.793 36.1838C103.214 36.1838 104.424 35.6819 105.422 34.678C106.435 33.659 106.941 32.4422 106.941 31.0277V5.15608C106.941 3.74158 106.435 2.5248 105.422 1.50576C104.424 0.501919 103.214 0 101.793 0Z" fill="white"/>
<path d="M108.098 31.849V41.0433H111.909V35.659H119.189V41.0433H123V31.849H121.299V0.501919H111.773V15.491C111.788 23.3849 111.153 28.8375 109.867 31.849H108.098ZM113.746 31.849C115.016 28.8375 115.651 23.3849 115.651 15.491V4.33475H117.488V31.849H113.746Z" fill="white"/>
<path d="M45.5649 36.8429H36.6964V40.6757H39.2367V72H43.0245V40.6757H45.5649V36.8429Z" fill="white"/>
<path d="M53.5942 55.1173L50.5322 36.706H46.7217L51.5075 66.1367C51.4924 67.5968 50.948 68.3269 49.8744 68.3269H48.3774V72H49.8744C51.1446 72 52.2333 71.6882 53.1406 71.0646C53.8512 70.5627 54.3956 69.9087 54.7736 69.1026C54.9702 68.6767 55.0987 68.266 55.1592 67.8706L59.5595 36.706H55.6809L53.5942 55.1173Z" fill="white"/>
<path d="M66.6588 57.1478C66.6588 57.8322 66.4396 58.3037 66.001 58.5623C65.7894 58.6839 65.5701 58.7372 65.3433 58.722H64.5041V40.767H65.3433C65.5701 40.7518 65.7894 40.805 66.001 40.9267C66.4396 41.1852 66.6588 41.6567 66.6588 42.3412V57.1478ZM70.4013 41.748C70.4013 41.3221 70.3937 40.9571 70.3786 40.6529C70.3332 39.862 70.2274 39.2156 70.0611 38.7137C69.6377 37.4665 68.685 36.8429 67.2032 36.8429H60.6935V72H64.5041V62.6461H67.2032C68.685 62.6461 69.6377 62.0225 70.0611 60.7753C70.2274 60.2886 70.3332 59.6421 70.3786 58.836C70.3937 58.5318 70.4013 58.1668 70.4013 57.7409V41.748Z" fill="white"/>
<path d="M0 0.281379H31.6132V71.6654H0V0.281379Z" fill="white"/>
</svg>
