<?xml version="1.0" standalone="no"?>
<!DOCTYPE svg PUBLIC "-//W3C//DTD SVG 20010904//EN"
 "http://www.w3.org/TR/2001/REC-SVG-20010904/DTD/svg10.dtd">
<svg version="1.0" xmlns="http://www.w3.org/2000/svg"
 width="700.000000pt" height="700.000000pt" viewBox="0 0 700.000000 700.000000"
 preserveAspectRatio="xMidYMid meet">
<metadata>
Created by potrace 1.11, written by Peter Selinger 2001-2013
</metadata>
<g transform="translate(0.000000,700.000000) scale(0.100000,-0.100000)"
fill="#000000" stroke="none">
<path d="M0 3500 l0 -3500 3500 0 3500 0 0 3500 0 3500 -3500 0 -3500 0 0
-3500z m5528 1694 c47 -19 97 -67 125 -119 22 -40 22 -45 25 -694 3 -720 3
-719 -58 -793 -17 -20 -55 -49 -86 -64 -47 -23 -63 -26 -117 -22 -72 6 -110
23 -156 70 -70 71 -66 21 -69 771 -2 644 -2 680 16 720 44 99 116 147 220 147
34 0 79 -7 100 -16z m-3428 -1684 l0 -1690 -755 0 -755 0 0 1690 0 1690 755 0
755 0 0 -1690z m1400 940 l0 -751 68 3 67 3 3 748 2 747 90 0 90 0 2 -747 3
-748 68 -3 67 -3 0 751 0 750 90 0 90 0 0 -840 0 -840 -410 0 -410 0 0 840 0
840 90 0 90 0 0 -750z m-652 -92 l-3 -833 -90 0 -90 0 -3 743 -2 742 -70 0
-70 0 0 -745 0 -745 -90 0 -90 0 0 835 0 835 255 0 255 0 -2 -832z m412 742
l0 -90 -90 0 -90 0 0 -280 0 -280 90 0 90 0 0 -90 0 -90 -90 0 -90 0 0 -280 0
-280 90 0 90 0 0 -95 0 -95 -180 0 -180 0 0 835 0 835 180 0 180 0 0 -90z
m1300 0 l0 -90 -90 0 -90 0 0 -280 0 -280 90 0 90 0 0 -90 0 -90 -90 0 -90 0
0 -280 0 -279 88 -3 87 -3 3 -92 3 -93 -181 0 -180 0 0 835 0 835 180 0 180 0
0 -90z m269 -107 c19 -109 37 -207 41 -217 7 -20 12 5 61 287 l23 127 88 0
c64 0 88 -3 88 -12 0 -7 -36 -188 -80 -402 -44 -214 -80 -401 -80 -417 0 -15
36 -204 80 -420 44 -215 80 -398 80 -406 0 -11 -17 -13 -87 -11 l-88 3 -40
219 c-21 120 -41 214 -43 208 -2 -7 -20 -105 -41 -219 l-37 -208 -87 -3 c-78
-2 -87 -1 -87 15 0 10 36 198 81 418 l82 400 -22 110 c-12 61 -50 248 -85 418
l-63 307 91 0 91 0 34 -197z m1531 -548 l0 -745 40 0 40 0 0 -215 0 -215 -90
0 -90 0 0 125 0 125 -175 0 -175 0 0 -125 0 -125 -90 0 -90 0 0 214 0 215 42
3 c41 3 43 5 61 52 54 147 77 455 77 1049 l0 387 225 0 225 0 0 -745z m-3600
-1065 l0 -90 -60 0 -60 0 0 -745 0 -745 -90 0 -90 0 0 745 0 745 -60 0 -60 0
0 90 0 90 210 0 210 0 0 -90z m305 -322 c37 -227 71 -416 74 -420 4 -4 26 167
50 380 24 213 46 402 49 420 l5 32 88 0 c76 0 89 -2 89 -17 0 -47 -202 -1446
-215 -1490 -31 -102 -125 -163 -252 -163 l-63 0 0 84 0 84 56 4 c66 6 85 22
91 79 2 28 -37 295 -106 718 -61 371 -111 680 -111 688 0 10 21 13 88 13 l89
0 68 -412z m811 385 c59 -42 59 -40 59 -593 0 -469 -1 -507 -18 -538 -27 -49
-84 -72 -179 -72 l-78 0 0 -220 0 -220 -90 0 -90 0 0 836 0 836 183 -4 c169
-3 184 -5 213 -25z"/>
<path d="M5386 5028 c-14 -20 -16 -100 -16 -673 l0 -652 23 -21 c28 -26 45
-27 75 -6 l22 15 0 663 c0 630 -1 664 -18 679 -26 24 -68 21 -86 -5z"/>
<path d="M6087 4563 c-5 -523 -12 -589 -78 -843 -3 -12 10 -15 81 -15 l85 0 3
653 2 652 -44 0 -44 0 -5 -447z"/>
<path d="M3660 2855 l0 -425 33 0 c68 0 67 -8 67 427 0 365 -1 391 -18 406
-10 10 -33 17 -50 17 l-32 0 0 -425z"/>
</g>
</svg>
