<svg width="141" height="202" viewBox="0 0 141 202" fill="none" xmlns="http://www.w3.org/2000/svg">
<rect x="4.5" y="4.50073" width="132" height="191.999" fill="white"/>
<rect x="12" y="11.998" width="117" height="176.999" fill="#0064D0"/>
<circle cx="4.49999" cy="16.498" r="4.49999" fill="#DBD1C6"/>
<circle cx="16.5" cy="4.49999" r="4.49999" fill="#DBD1C6"/>
<circle cx="4.49999" cy="4.49999" r="4.49999" fill="#DBD1C6"/>
<circle cx="28.5" cy="4.49999" r="4.49999" fill="#DBD1C6"/>
<circle cx="40.5" cy="4.49999" r="4.49999" fill="#DBD1C6"/>
<circle cx="52.5" cy="4.49999" r="4.49999" fill="#DBD1C6"/>
<circle cx="64.5" cy="4.49999" r="4.49999" fill="#DBD1C6"/>
<circle cx="76.5019" cy="4.49999" r="4.49999" fill="#DBD1C6"/>
<circle cx="88.5" cy="4.49999" r="4.49999" fill="#DBD1C6"/>
<path d="M30.7685 28.989V51.1125H33.4756V26.282H25.9023L25.9185 51.1125L28.6577 51.1286V28.989H30.7685Z" fill="white"/>
<path d="M39.6792 28.989V26.282H34.2812V51.1125H39.6792V48.4055H36.9882V40.0588H39.6792V37.3518H36.9882V28.989H39.6792Z" fill="white"/>
<path d="M48.0742 26.137H48.058V26.1208L45.3188 26.137L45.3027 48.4216H43.2563V26.1208L40.517 26.137L40.5009 51.1286H52.8759V26.137H50.1689V48.4216H48.0742V26.137Z" fill="white"/>
<path d="M59.0795 28.989V26.282H53.6816V51.1125H59.0795V48.4055H56.3886V40.0588H59.0795V37.3518H56.3886V28.989H59.0795Z" fill="white"/>
<path d="M67.7001 51.1125L65.1542 38.6892L67.7001 26.282H65.0092L63.8007 32.9851L62.6083 26.282H59.9013L62.4472 38.7053L59.9013 51.1125H62.6083L63.8007 44.4094L65.0092 51.1125H67.7001Z" fill="white"/>
<path d="M71.245 29.2468C71.245 28.9997 71.3363 28.7903 71.5189 28.6184C71.6908 28.4358 71.9003 28.3445 72.1473 28.3445C72.3944 28.3445 72.6092 28.4358 72.7919 28.6184C72.9637 28.7903 73.0497 28.9997 73.0497 29.2468V48.1638C73.0497 48.4108 72.9637 48.6203 72.7919 48.7922C72.6092 48.964 72.3944 49.05 72.1473 49.05C71.9003 49.05 71.6908 48.964 71.5189 48.7922C71.3363 48.6203 71.245 48.4108 71.245 48.1638V29.2468ZM72.1473 25.9275C71.1483 25.9275 70.2889 26.282 69.5692 26.991C68.8602 27.7107 68.5057 28.5701 68.5057 29.5691V47.8415C68.5057 48.8405 68.8602 49.6999 69.5692 50.4196C70.2889 51.1286 71.1483 51.4831 72.1473 51.4831C73.1571 51.4831 74.0165 51.1286 74.7254 50.4196C75.4452 49.6999 75.805 48.8405 75.805 47.8415V29.5691C75.805 28.5701 75.4452 27.7107 74.7254 26.991C74.0165 26.282 73.1571 25.9275 72.1473 25.9275Z" fill="white"/>
<path d="M76.6268 48.4216V54.9152H79.3338V51.1125H84.5062V54.9152H87.2132V48.4216H86.0047V26.282H79.2371V36.8684C79.2479 42.4436 78.7967 46.2946 77.8836 48.4216H76.6268ZM80.639 48.4216C81.5413 46.2946 81.9925 42.4436 81.9925 36.8684V28.989H83.2977V48.4216H80.639Z" fill="white"/>
<path d="M97.3323 26.282H91.032V28.989H92.8367V51.1125H95.5276V28.989H97.3323V26.282Z" fill="white"/>
<path d="M103.036 39.1887L100.861 26.1853H98.1541L101.554 46.9714C101.543 48.0026 101.157 48.5182 100.394 48.5182H99.3303V51.1125H100.394C101.296 51.1125 102.07 50.8923 102.714 50.4518C103.219 50.0973 103.606 49.6354 103.874 49.0661C104.014 48.7653 104.105 48.4753 104.148 48.196L107.274 26.1853H104.519L103.036 39.1887Z" fill="white"/>
<path d="M112.318 40.6228C112.318 41.1062 112.162 41.4392 111.85 41.6218C111.7 41.7077 111.544 41.7453 111.383 41.7346H110.787V29.0535H111.383C111.544 29.0427 111.7 29.0803 111.85 29.1663C112.162 29.3489 112.318 29.6819 112.318 30.1653V40.6228ZM114.976 29.7463C114.976 29.4455 114.971 29.1877 114.96 28.9729C114.928 28.4143 114.853 27.9578 114.735 27.6033C114.434 26.7224 113.757 26.282 112.704 26.282H108.08V51.1125H110.787V44.506H112.704C113.757 44.506 114.434 44.0656 114.735 43.1848C114.853 42.841 114.928 42.3845 114.96 41.8151C114.971 41.6003 114.976 41.3425 114.976 41.0417V29.7463Z" fill="white"/>
<path d="M34.1163 173.826C33.6588 174.328 33.1788 174.351 32.9838 174.351C32.6163 174.351 32.2713 174.208 32.0538 174.006C31.7913 173.758 31.6488 173.376 31.6488 173.031C31.6488 172.678 31.7763 172.288 32.0838 172.003C32.3238 171.786 32.6088 171.673 32.9838 171.673C33.2013 171.673 33.6963 171.703 34.1163 172.221V170.668C33.5838 170.451 33.1863 170.413 32.9463 170.413C32.1663 170.413 31.4988 170.743 31.0563 171.193C30.6063 171.651 30.2988 172.326 30.2988 173.038C30.2988 173.691 30.5688 174.373 31.0563 174.861C31.4688 175.266 32.1213 175.611 32.9913 175.611C33.3138 175.611 33.5988 175.551 34.1163 175.363V173.826Z" fill="white"/>
<path d="M39.5003 175.498H40.8878L39.0053 170.496H37.5878L35.6678 175.498H37.0403L37.3778 174.658H39.1928L39.5003 175.498ZM37.7378 173.668L38.2853 172.048L38.8478 173.668H37.7378Z" fill="white"/>
<path d="M43.9625 170.496H42.665V175.498H43.9625V173.473H45.8375V175.498H47.1425V170.496H45.8375V172.363H43.9625V170.496Z" fill="white"/>
<path d="M50.6923 170.496H49.3948V175.498H50.6923V173.331L52.3873 175.498H54.0673L51.8998 172.866L53.8873 170.496H52.2823L50.6923 172.558V170.496Z" fill="white"/>
<path d="M58.7573 171.598V170.496H55.3298V171.598H56.3948V175.498H57.6923V171.598H58.7573Z" fill="white"/>
<path d="M60.3825 173.983H62.28V172.986H60.3825V173.983Z" fill="white"/>
<path d="M68.7715 175.498V170.496H64.3766V175.498H65.674V171.606H67.4665V175.498H68.7715Z" fill="white"/>
<path d="M73.8609 170.496H71.0184V175.498H73.8609V174.396H72.3159V173.533H73.7784V172.431H72.3159V171.598H73.8609V170.496Z" fill="white"/>
<path d="M79.1285 171.598V170.496H75.701V171.598H76.766V175.498H78.0635V171.598H79.1285Z" fill="white"/>
<path d="M83.7463 170.496H80.9038V175.498H83.7463V174.396H82.2012V173.533H83.6637V172.431H82.2012V171.598H83.7463V170.496Z" fill="white"/>
<path d="M87.8882 173.841C88.2782 173.841 88.7432 173.788 89.1332 173.406C89.5232 173.023 89.5757 172.558 89.5757 172.161C89.5757 171.741 89.5007 171.321 89.1107 170.946C88.7282 170.578 88.2782 170.496 87.8432 170.496H85.7732V175.498H87.0707V173.841H87.8882ZM87.0707 171.546H87.5132C87.6782 171.546 87.9182 171.568 88.0682 171.726C88.2032 171.861 88.2182 172.041 88.2182 172.176C88.2182 172.296 88.2107 172.498 88.0532 172.633C87.8957 172.776 87.6407 172.791 87.5057 172.791H87.0707V171.546Z" fill="white"/>
<path d="M91.4629 175.498H93.2329C93.8329 175.498 94.4329 175.438 94.8304 175.048C95.1004 174.778 95.2429 174.388 95.2429 173.983C95.2429 173.563 95.0929 173.196 94.8604 172.948C94.4854 172.558 93.9154 172.461 93.2779 172.461H92.7679V171.598H94.7179V170.496H91.4629V175.498ZM92.7679 174.486V173.451H93.2179C93.3829 173.451 93.6229 173.458 93.7729 173.586C93.8554 173.661 93.9229 173.788 93.9229 173.961C93.9229 174.111 93.8704 174.231 93.7954 174.313C93.6379 174.478 93.3604 174.486 93.2179 174.486H92.7679Z" fill="white"/>
<path d="M96.3713 170.496L98.0738 174.096L97.3763 175.498H98.7488L100.999 170.496H99.6113L98.7788 172.723L97.8263 170.496H96.3713Z" fill="white"/>
<path d="M104.884 173.841C105.274 173.841 105.739 173.788 106.129 173.406C106.519 173.023 106.572 172.558 106.572 172.161C106.572 171.741 106.497 171.321 106.107 170.946C105.724 170.578 105.274 170.496 104.839 170.496H102.769V175.498H104.067V173.841H104.884ZM104.067 171.546H104.509C104.674 171.546 104.914 171.568 105.064 171.726C105.199 171.861 105.214 172.041 105.214 172.176C105.214 172.296 105.207 172.498 105.049 172.633C104.892 172.776 104.637 172.791 104.502 172.791H104.067V171.546Z" fill="white"/>
<path d="M111.384 170.496H108.459V175.498H109.756V171.598H111.384V170.496Z" fill="white"/>
<circle cx="100.5" cy="4.49999" r="4.49999" fill="#DBD1C6"/>
<circle cx="112.5" cy="4.49999" r="4.49999" fill="#DBD1C6"/>
<circle cx="124.5" cy="4.49999" r="4.49999" fill="#DBD1C6"/>
<circle cx="16.5" cy="196.502" r="4.49999" fill="#DBD1C6"/>
<circle cx="28.5" cy="196.502" r="4.49999" fill="#DBD1C6"/>
<circle cx="40.5" cy="196.502" r="4.49999" fill="#DBD1C6"/>
<circle cx="52.5" cy="196.502" r="4.49999" fill="#DBD1C6"/>
<circle cx="64.5" cy="196.502" r="4.49999" fill="#DBD1C6"/>
<circle cx="76.5019" cy="196.502" r="4.49999" fill="#DBD1C6"/>
<circle cx="88.5" cy="196.502" r="4.49999" fill="#DBD1C6"/>
<circle cx="100.5" cy="196.502" r="4.49999" fill="#DBD1C6"/>
<circle cx="112.5" cy="196.502" r="4.49999" fill="#DBD1C6"/>
<circle cx="124.5" cy="196.502" r="4.49999" fill="#DBD1C6"/>
<circle cx="136.5" cy="4.49999" r="4.49999" fill="#DBD1C6"/>
<circle cx="4.49999" cy="28.4997" r="4.49999" fill="#DBD1C6"/>
<circle cx="4.49999" cy="40.4978" r="4.49999" fill="#DBD1C6"/>
<circle cx="4.49999" cy="52.4995" r="4.49999" fill="#DBD1C6"/>
<circle cx="4.49999" cy="64.4975" r="4.49999" fill="#DBD1C6"/>
<circle cx="4.49999" cy="76.4993" r="4.49999" fill="#DBD1C6"/>
<circle cx="4.49999" cy="88.4975" r="4.49999" fill="#DBD1C6"/>
<circle cx="4.49999" cy="100.499" r="4.49999" fill="#DBD1C6"/>
<circle cx="4.49999" cy="112.497" r="4.49999" fill="#DBD1C6"/>
<circle cx="4.49999" cy="124.499" r="4.49999" fill="#DBD1C6"/>
<circle cx="4.49999" cy="136.497" r="4.49999" fill="#DBD1C6"/>
<circle cx="4.49999" cy="148.502" r="4.49999" fill="#DBD1C6"/>
<circle cx="4.49999" cy="160.5" r="4.49999" fill="#DBD1C6"/>
<circle cx="4.49999" cy="172.502" r="4.49999" fill="#DBD1C6"/>
<circle cx="4.49999" cy="184.5" r="4.49999" fill="#DBD1C6"/>
<circle cx="4.49999" cy="196.502" r="4.49999" fill="#DBD1C6"/>
<circle cx="136.5" cy="16.498" r="4.49999" fill="#DBD1C6"/>
<circle cx="136.5" cy="28.4997" r="4.49999" fill="#DBD1C6"/>
<circle cx="136.5" cy="40.4978" r="4.49999" fill="#DBD1C6"/>
<circle cx="136.5" cy="52.4995" r="4.49999" fill="#DBD1C6"/>
<circle cx="136.5" cy="64.4975" r="4.49999" fill="#DBD1C6"/>
<circle cx="136.5" cy="76.4993" r="4.49999" fill="#DBD1C6"/>
<circle cx="136.5" cy="88.4975" r="4.49999" fill="#DBD1C6"/>
<circle cx="136.5" cy="100.499" r="4.49999" fill="#DBD1C6"/>
<circle cx="136.5" cy="112.497" r="4.49999" fill="#DBD1C6"/>
<circle cx="136.5" cy="124.499" r="4.49999" fill="#DBD1C6"/>
<circle cx="136.5" cy="136.497" r="4.49999" fill="#DBD1C6"/>
<circle cx="136.5" cy="148.502" r="4.49999" fill="#DBD1C6"/>
<circle cx="136.5" cy="160.5" r="4.49999" fill="#DBD1C6"/>
<circle cx="136.5" cy="172.502" r="4.49999" fill="#DBD1C6"/>
<circle cx="136.5" cy="184.5" r="4.49999" fill="#DBD1C6"/>
<circle cx="136.5" cy="196.502" r="4.49999" fill="#DBD1C6"/>
<g clip-path="url(#clip0)">
<path d="M70.4999 133.799C61.713 133.799 54.5645 141.01 54.5645 149.874V152.25H62.3367L74.386 134.283C73.1417 133.967 71.84 133.799 70.4999 133.799Z" fill="#9EA2A3"/>
<path d="M74.3853 134.284C67.4707 136.039 62.3359 142.363 62.3359 149.875V152.252H86.4349V149.875C86.4349 142.363 81.3001 136.039 74.3853 134.284Z" fill="#B9BBBC"/>
<path d="M87.0462 146.648C88.2514 146.264 88.8655 144.939 88.4012 143.762C85.586 136.628 78.6233 131.567 70.5006 131.567C62.3783 131.567 55.4157 136.628 52.6005 143.762C52.1362 144.939 52.7503 146.264 53.9555 146.648L63.6331 149.734C65.867 150.446 68.1839 150.802 70.5009 150.802C72.8178 150.802 75.1348 150.446 77.3687 149.734L87.0462 146.648Z" fill="#FFCE71"/>
<path d="M70.5006 133.606V131.568C62.3783 131.568 55.4157 136.629 52.6005 143.763C52.1362 144.939 52.7503 146.264 53.9555 146.648L60.3108 148.675L60.3759 147.694C60.7834 141.55 65.104 136.305 70.5006 133.606Z" fill="#FFB357"/>
<path d="M73.7867 80.645L56.4597 87.5722L41.7129 111.998L70.5006 127.411L70.5005 135.054C72.7445 135.054 74.9131 134.732 76.964 134.134C86.5509 131.34 99.2884 122.488 99.2884 111.999C99.2884 100.34 85.8318 83.4206 73.7867 80.645Z" fill="#FFCE71"/>
<path d="M70.5006 127.411L55.0878 111.998C56.0578 99.4766 63.3101 87.5758 73.7868 80.6451C72.6756 80.3891 71.5761 80.2505 70.5006 80.2505C57.7677 80.2505 41.7129 99.2649 41.7129 111.998C41.7129 122.488 54.4503 131.34 64.0372 134.134C66.0881 134.732 68.2566 135.054 70.5005 135.054C71.7159 132.79 71.8455 129.974 70.5006 127.411Z" fill="#FFB357"/>
<path d="M50.748 104.66C49.0241 106.842 48.0449 109.342 48.0449 111.998C48.0449 120.524 58.1226 127.411 70.4994 127.411H70.4996V104.66H50.748Z" fill="#FFBD86"/>
<path d="M90.2505 104.66C89.987 104.66 64.3499 104.66 56.3801 104.66C55.7181 107.059 55.2782 109.516 55.0859 111.998C55.0859 120.524 62.0033 127.411 70.4987 127.411H70.4988C82.8781 127.411 92.9535 120.523 92.9535 111.998C92.9536 109.342 91.9745 106.842 90.2505 104.66Z" fill="#FFDDCF"/>
<path d="M90.2513 104.66C90.0473 104.66 75.8956 104.66 66.1055 104.66C74.3895 108.945 83.5892 111.158 92.9157 111.107C92.7226 108.783 91.7811 106.596 90.2513 104.66Z" fill="#C77464"/>
<path d="M59.2021 119.553C61.2023 119.559 62.8277 118.272 62.8324 116.68C62.8372 115.087 61.2196 113.791 59.2194 113.785C57.2192 113.779 55.5938 115.065 55.589 116.658C55.5842 118.251 57.2019 119.547 59.2021 119.553Z" fill="#FF8E9E"/>
<path d="M81.7979 113.865C79.7977 113.859 78.1723 115.145 78.1676 116.738C78.1628 118.331 79.7804 119.627 81.7806 119.633C83.7808 119.639 85.4062 118.353 85.411 116.76C85.4158 115.167 83.7982 113.871 81.7979 113.865Z" fill="#FF8E9E"/>
<path d="M61.2291 111.107C60.629 111.107 60.1426 111.594 60.1426 112.194V113.642C60.1426 114.242 60.629 114.729 61.2291 114.729C61.8291 114.729 62.3156 114.242 62.3156 113.642V112.194C62.3156 111.594 61.8291 111.107 61.2291 111.107Z" fill="#313D40"/>
<path d="M79.7721 111.107C79.172 111.107 78.6855 111.594 78.6855 112.194V113.642C78.6855 114.242 79.172 114.729 79.7721 114.729C80.3721 114.729 80.8586 114.242 80.8586 113.642V112.194C80.8586 111.594 80.3721 111.107 79.7721 111.107Z" fill="#313D40"/>
<path d="M73.6912 115.722C73.1498 115.463 72.6337 116.949 72.375 117.49C72.1336 117.995 73.3212 117.49 72.75 117.49C72.1788 117.49 74.1737 116.383 73.9323 115.879C73.6735 115.337 68.6592 115.463 68.1181 115.722C67.5767 115.981 67.3477 116.63 67.6066 117.171C68.2067 118.426 69.5013 119.238 70.9046 119.238C72.308 119.238 73.6025 118.426 74.2027 117.171C74.4616 116.63 74.2326 115.981 73.6912 115.722Z" fill="#313D40"/>
</g>
<g clip-path="url(#clip1)">
<path d="M88.2528 130.78C87.2842 130.78 86.4996 131.431 86.4996 132.236C86.4996 134.637 84.1463 136.595 81.2496 136.595C78.3579 136.595 76.0011 134.637 76.0011 132.236V99.3752H72.502V132.236C72.502 136.246 76.419 139.499 81.2496 139.499C86.0844 139.499 90.0011 136.246 90.0011 132.236C90.0011 131.431 89.2167 130.78 88.2528 130.78Z" fill="#434A54"/>
<ellipse cx="71.25" cy="135.749" rx="3.74999" ry="3.74999" fill="#675C48"/>
<ellipse cx="78.75" cy="135.749" rx="3.74999" ry="3.74999" fill="#675C48"/>
</g>
<path d="M74.2483 63.7517C73.2844 63.7517 72.5 64.403 72.5 65.2056V71.0186H75.9992V65.2056C75.9992 64.403 75.2172 63.7517 74.2483 63.7517Z" fill="#434A54"/>
<path d="M73.4993 69.5632C50.3053 69.5632 31.5 85.1763 31.5 104.44V104.755C34.4993 101.588 39.1543 99.5548 44.3812 99.5548C50.7205 99.5548 52.7175 102.545 55.4423 106.922C58.1646 102.545 67.1625 99.5548 73.4991 99.5548C79.8422 99.5548 88.8348 102.545 91.5624 106.922C94.2848 102.545 96.2792 99.5548 102.621 99.5548C107.845 99.5548 112.5 101.588 115.5 104.755V104.44C115.5 85.1763 96.6946 69.5632 73.4993 69.5632Z" fill="#3B8566"/>
<path d="M73.5002 99.5548C79.8433 99.5548 88.8358 102.545 91.5634 106.917C91.5634 84.7974 80.5405 73.978 76.3111 69.6399C75.3818 69.5888 74.4436 69.5632 73.5002 69.5632C72.5568 69.5632 71.6211 69.5888 70.6932 69.6399C66.461 73.978 55.4434 84.7976 55.4434 106.922C58.1657 102.545 67.1635 99.5548 73.5002 99.5548Z" fill="white"/>
<defs>
<clipPath id="clip0">
<rect x="34.5" y="80.2505" width="71.9998" height="71.9998" fill="white"/>
</clipPath>
<clipPath id="clip1">
<rect x="32.25" y="69.749" width="83.9997" height="69.7498" fill="white"/>
</clipPath>
</defs>
</svg>
