<svg width="120" height="120" viewBox="0 0 120 120" fill="none" xmlns="http://www.w3.org/2000/svg">
<path d="M58.125 30.9375V94.6873C58.125 96.7582 56.4457 98.437 54.3752 98.437C52.3048 98.437 50.6255 96.7577 50.6255 94.6873H50.5392C50.3452 94.1426 49.8305 93.75 49.219 93.75C48.6075 93.75 48.0928 94.143 47.8987 94.6873H47.8125L47.8284 95.0004L47.8125 95.156C47.8125 95.2938 47.8378 95.4251 47.8753 95.5516C48.3 98.7673 51.0441 101.25 54.375 101.25C57.9994 101.25 60.9377 98.3112 60.9377 94.6868V30.9375H58.125Z" fill="#334D5D"/>
<path d="M42.9139 63.5738H43.7033C45.8961 59.8613 52.048 57.1847 59.3099 57.1847C66.5717 57.1847 72.7246 59.8613 74.9164 63.5738H75.7058C77.8984 59.8613 84.0512 57.1847 91.3131 57.1847C94.4687 57.1847 97.4066 57.6994 99.9128 58.5741C97.363 38.7572 80.3734 23.4375 59.7812 23.4375C39.3006 23.4375 22.3824 38.5913 19.6899 58.2525C21.9699 57.5735 24.5558 57.1847 27.3071 57.1847C34.5681 57.1847 40.7221 59.8624 42.9139 63.5738Z" fill="#4aad7b"/>
<path d="M43.7022 63.5735C45.8948 59.861 52.0469 57.1845 59.3088 57.1845C66.5707 57.1845 72.7235 59.861 74.9153 63.5735H75.3065C75.0691 41.5779 70.3399 29.7487 59.8321 23.4375H59.8284C49.3649 29.2266 43.6743 41.5498 43.3872 63.5735C43.3872 63.5735 43.7022 63.5735 43.7022 63.5735Z" fill="white"/>
</svg>
