<svg width="137" height="81" viewBox="0 0 137 81" fill="none" xmlns="http://www.w3.org/2000/svg">
<path d="M0 0V80.1382H36.0043V0H19.1203H16.884H0ZM17.1705 41.5975C19.3763 41.6464 21.7497 42.1393 24.243 43.2329C24.4617 42.8672 24.7468 42.4854 25.0257 42.5895C25.362 42.7149 25.1373 43.237 24.9698 43.568C29.3006 45.6431 31.5731 48.2181 33.0692 50.8138C36.0598 56.0016 35.03 61.494 34.5018 64.8426C29.3762 62.6079 27.8 61.86 27.8 61.86C27.8 61.86 30.7879 48.5803 24.9067 44.8281C25.4618 47.5508 24.5469 53.9222 22.0416 59.2726C20.9715 58.8258 19.6288 58.219 18.3376 57.6438L9.91659 74.7224L10.0984 74.8028L8.70072 77.6583C8.38987 78.2932 8.59002 78.7895 9.20388 79.0658C9.82445 79.3453 10.3466 79.1713 10.6575 78.5364L12.0552 75.6809L13.0264 76.1234L11.6287 78.9721C11.0334 80.1891 9.83251 80.3718 8.77742 79.8969C7.72234 79.4221 7.14783 78.4395 7.74313 77.2225L9.13389 74.3672L9.22468 74.4075L17.7018 57.3624C15.3378 56.3032 13.2431 55.3515 13.2431 55.3515C13.2431 55.3515 18.6337 46.5067 23.1877 44.0574C20.1423 43.5379 15.1272 43.074 7.65234 52.7442C1.64319 50.1965 0.75475 49.6341 0.75475 49.6341C0.75475 49.6341 7.34977 41.3795 17.1705 41.5975Z" fill="white"/>
<path d="M50.8306 40.6215V0.571716H38.6875L38.7121 40.6215L43.1064 40.6461V4.9392H46.4899V40.6215H50.8306Z" fill="white"/>
<path d="M60.7775 36.254H56.4637V22.7915H60.7775V18.4263H56.4637V4.9392H60.7775V0.571716H52.123V40.6215H60.7775V36.254Z" fill="white"/>
<path d="M77.5999 36.2806H74.241V0.338846H74.2142V0.312012L69.8221 0.338846L69.7953 36.2806H66.5146V0.312012L62.1225 0.338846L62.0957 40.6458H81.9406V0.338846H77.5999V36.2806Z" fill="white"/>
<path d="M83.2305 40.6215H91.8872V36.254H87.5711V22.7915H91.8872V18.4263H87.5711V4.9392H91.8872V0.571716H83.2305V40.6215Z" fill="white"/>
<path d="M101.394 0.571716L99.4578 11.3842L97.5457 0.571716H93.2051L97.2863 20.6089L93.2051 40.6215H97.5457L99.4578 29.809L101.394 40.6215H105.71L101.627 20.5843L105.71 0.571716H101.394Z" fill="white"/>
<path d="M112.837 0.000965698C112.068 -0.00842674 111.305 0.138721 110.595 0.433688C109.884 0.728432 109.241 1.16496 108.705 1.7162C108.155 2.25873 107.721 2.90658 107.428 3.62085C107.135 4.33513 106.989 5.10128 106.999 5.87347V35.3456C106.989 36.1178 107.135 36.8839 107.428 37.5982C107.721 38.3125 108.155 38.9603 108.705 39.5029C109.526 40.3225 110.572 40.8802 111.71 41.1054C112.848 41.3306 114.027 41.2134 115.099 40.7684C116.17 40.3234 117.085 39.5706 117.729 38.6054C118.373 37.6403 118.716 36.5058 118.714 35.3456V5.87347C118.724 5.09927 118.575 4.3311 118.278 3.61638C117.98 2.90144 117.54 2.25493 116.984 1.7162C116.448 1.16071 115.803 0.721721 115.089 0.426754C114.376 0.131563 113.609 -0.0133466 112.837 0.000965698ZM114.284 35.8644C114.288 36.0529 114.254 36.2403 114.183 36.4148C114.111 36.5894 114.005 36.7475 113.871 36.8797C113.594 37.1487 113.223 37.2974 112.837 37.2934C112.65 37.2968 112.465 37.2619 112.292 37.1908C112.119 37.1194 111.962 37.0136 111.831 36.8797C111.688 36.7522 111.575 36.5955 111.498 36.4204C111.421 36.2453 111.382 36.0558 111.384 35.8644V5.35465C111.382 5.16367 111.421 4.97448 111.498 4.79983C111.575 4.62517 111.689 4.46886 111.831 4.34161C111.957 4.19916 112.112 4.08556 112.286 4.0084C112.459 3.93125 112.647 3.89234 112.837 3.89435C113.031 3.89368 113.223 3.93304 113.401 4.00997C113.579 4.0869 113.739 4.19983 113.871 4.34161C114.005 4.47333 114.111 4.63099 114.182 4.80519C114.254 4.97962 114.288 5.16658 114.284 5.35465V35.8644Z" fill="white"/>
<path d="M135.058 36.2808V0.573914H124.208V17.648C124.225 26.6408 123.502 32.8519 122.036 36.2808H120.023V46.7556H124.364V40.617H132.658V46.7511H136.999V36.2808H135.058ZM130.717 36.2808H126.455C127.903 32.8519 128.626 26.6408 128.624 17.648V4.93916H130.717V36.2808Z" fill="white"/>
<path d="M72.6152 76.2744V51.8903H80.1122V55.0068H75.2355V60.6686H76.9096C77.618 60.6686 78.2319 60.8484 78.7512 61.2084C79.2702 61.5685 79.7023 62.0793 80.0467 62.7412C80.3913 63.4029 80.646 64.2042 80.811 65.1448C80.9758 66.0854 81.0584 67.1362 81.0584 68.2973C81.0584 69.5514 80.9758 70.6718 80.811 71.6589C80.646 72.6458 80.3913 73.4819 80.0467 74.1669C79.7023 74.8521 79.2702 75.3745 78.7512 75.7345C78.2319 76.0943 77.618 76.2744 76.9096 76.2744H72.6152ZM75.2351 72.917L76.647 72.9032C77.2777 72.9032 77.6956 72.6536 77.9577 72.1542C78.2198 71.6551 78.3509 69.1797 78.3509 68.2973C78.3509 67.4148 78.2198 64.9395 77.9577 64.4403C77.6956 63.941 77.2493 63.6914 76.6184 63.6914H75.2355L75.2351 72.917Z" fill="white"/>
<path d="M81.8691 76.2742V51.8901H89.2932V54.9129H84.4894V62.1833H88.8564V65.2844H84.4894V73.2514H89.2932V76.2742H81.8691Z" fill="white"/>
<path d="M89.6677 76.2971C89.6677 76.2971 89.6449 73.2644 89.6637 73.2602C89.6825 73.2561 89.8224 73.2517 89.871 73.2517C90.104 73.2517 90.4983 72.6266 90.4983 72.6266C90.4983 72.6266 90.7807 71.9161 90.8827 71.1265C90.9846 70.3369 91.0598 67.3856 91.1083 65.8413C91.1568 64.2971 91.1812 62.201 91.1812 59.5537V51.8901H98.8964V76.2742H96.2762V54.9717H93.6266V60.2503C93.6266 63.8731 93.549 66.7644 93.3938 68.9242C93.2386 71.084 93.0177 72.7445 92.7314 73.9056C92.4452 75.0666 92.1247 75.937 91.717 76.2971C91.0962 76.2971 89.6677 76.2971 89.6677 76.2971Z" fill="white"/>
<path d="M99.9688 76.2742V51.8901H106.811V55.0066H102.589V76.2742H99.9688Z" fill="white"/>
<path d="M107.637 76.2742V51.8901H112.152C112.86 51.8901 113.474 51.9033 113.993 52.2864C114.513 52.6697 114.944 53.3938 115.289 54.1021C115.633 54.8103 115.522 55.6813 115.687 56.7147C115.852 57.7481 115.934 58.915 115.934 60.2156C115.934 61.516 115.852 62.6829 115.687 63.7163C115.522 64.7499 115.267 65.6208 114.923 66.329C114.578 67.0372 114.146 67.5831 113.627 67.9662C113.108 68.3495 112.494 68.5409 111.785 68.5409H110.257V76.2742H107.637ZM110.257 65.1699H111.494C112.164 65.1699 112.635 64.9027 112.906 64.3687C113.178 63.8344 113.314 61.2607 113.314 60.2156C113.314 59.1706 113.178 56.5966 112.906 56.0624C112.635 55.5284 112.164 55.2613 111.494 55.2613H110.257V65.1699Z" fill="white"/>
<path d="M115.57 76.2742L119.283 51.8901H121.903L125.615 76.2742H122.849L122.15 71.2495H118.744L118.045 76.2742H115.57ZM119.512 68.5751L121.408 68.5836L120.447 59.5537L119.512 68.5751Z" fill="white"/>
<path d="M126.664 80.8027V73.2599H127.829C127.955 72.4936 128.426 69.4466 128.508 68.4016C128.591 67.3566 128.658 66.2463 128.71 65.0706C128.762 63.895 128.798 62.6874 128.819 61.4478C128.84 60.2083 128.85 58.9964 128.85 57.8121L128.484 51.8901H135.966V73.2599H137V80.8027H134.729V76.2742H128.935V80.8027H126.664ZM130.347 73.2599H133.346L133.395 53.9086H131.345L131.296 58.5087C131.296 61.3306 131.25 63.772 131.157 65.833C131.065 67.8937 130.551 71.7969 130.347 73.2599Z" fill="white"/>
<path d="M42.1324 78.226V76.0226H69.3027V72.7377H42.1324V70.5343H38.8086V78.226H42.1324Z" fill="white"/>
<path d="M54.66 63.5693L48.7502 64.5521L38.6893 66.2255V69.5308L64.2179 65.3793C65.485 65.393 66.1179 65.8651 66.1168 66.796V68.0938H69.3026V66.796C69.3312 65.7906 69.0481 64.8008 68.4922 63.9626C68.059 63.349 67.4715 62.8602 66.7892 62.546C66.4504 62.3832 66.0904 62.2684 65.7198 62.2054L38.6875 58.3891V61.7592L54.66 63.5693Z" fill="white"/>
<path d="M40.4312 49.2867C39.3504 49.6546 38.8097 50.4809 38.8086 51.7661V57.4127H69.3027V54.1075H61.1905V51.7661C61.1905 50.48 60.6496 49.6535 59.5677 49.2867C59.0213 49.1217 58.4558 49.0289 57.8853 49.011C57.6214 48.9989 57.3045 48.9922 56.9351 48.9922H43.0571C42.6874 48.9922 42.3759 48.9922 42.1069 49.011C41.5389 49.0318 40.976 49.1246 40.4312 49.2867ZM56.421 52.2377C57.0156 52.2377 57.4244 52.428 57.6469 52.8082C57.75 52.9799 57.7985 53.1788 57.7864 53.3787V54.1075H42.2057V53.3787C42.1928 53.179 42.2409 52.9799 42.3435 52.8082C42.5705 52.428 42.98 52.2377 43.5712 52.2377H56.421Z" fill="white"/>
</svg>
