<svg width="118" height="56" viewBox="0 0 118 56" fill="none" xmlns="http://www.w3.org/2000/svg">
<path d="M0 0.180664V55.3249H31V0.180664H16.4627H14.5372H0ZM14.7839 28.8045C16.6832 28.8381 18.7267 29.1773 20.8734 29.9299C21.0617 29.6782 21.3072 29.4155 21.5473 29.4871C21.8369 29.5734 21.6434 29.9327 21.4992 30.1604C25.228 31.5884 27.1847 33.3602 28.4728 35.1464C31.0478 38.7162 30.1611 42.4956 29.7063 44.7998C25.2931 43.262 23.936 42.7474 23.936 42.7474C23.936 42.7474 26.5087 33.6095 21.4449 31.0275C21.9228 32.9011 21.1351 37.2853 18.978 40.967C18.0566 40.6595 16.9006 40.242 15.7888 39.8462L8.53826 51.5982L8.6948 51.6536L7.49138 53.6185C7.22374 54.0553 7.39607 54.3969 7.92461 54.587C8.45893 54.7793 8.90853 54.6596 9.17617 54.2227L10.3796 52.2578L11.2158 52.5623L10.0124 54.5225C9.49984 55.3599 8.46586 55.4857 7.55743 55.1589C6.64899 54.8321 6.15434 54.156 6.6669 53.3186L7.86434 51.3538L7.94252 51.3816L15.2414 39.6525C13.206 38.9237 11.4024 38.2688 11.4024 38.2688C11.4024 38.2688 16.0437 32.1826 19.9648 30.4972C17.3427 30.1397 13.0246 29.8205 6.58872 36.4747C1.4148 34.7216 0.649845 34.3346 0.649845 34.3346C0.649845 34.3346 6.3282 28.6545 14.7839 28.8045Z" fill="#0064D0"/>
<path d="M43.7658 28.1326V0.57373H33.3105L33.3317 28.1326L37.1153 28.1495V3.57906H40.0285V28.1326H43.7658Z" fill="black"/>
<path d="M52.3305 25.1272H48.6162V15.8635H52.3305V12.8597H48.6162V3.57906H52.3305V0.57373H44.8789V28.1326H52.3305V25.1272Z" fill="black"/>
<path d="M66.8141 25.146H63.922V0.413973H63.8989V0.395508L60.1173 0.413973L60.0942 25.146H57.2696V0.395508L53.4879 0.413973L53.4648 28.1498H70.5514V0.413973H66.8141V25.146Z" fill="black"/>
<path d="M71.6621 28.1326H79.1156V25.1272H75.3994V15.8635H79.1156V12.8597H75.3994V3.57906H79.1156V0.57373H71.6621V28.1326Z" fill="black"/>
<path d="M87.3011 0.57373L85.6336 8.01396L83.9873 0.57373H80.25L83.764 14.3616L80.25 28.1326H83.9873L85.6336 20.6923L87.3011 28.1326H91.0172L87.5013 14.3447L91.0172 0.57373H87.3011Z" fill="black"/>
<path d="M97.1547 0.181329C96.4924 0.174866 95.8354 0.27612 95.2237 0.479091C94.612 0.681908 94.0584 0.982287 93.5965 1.36161C93.1234 1.73493 92.7495 2.18072 92.497 2.67223C92.2446 3.16373 92.1189 3.69093 92.1274 4.22228V24.5025C92.1189 25.0338 92.2446 25.561 92.497 26.0525C92.7495 26.544 93.1234 26.9898 93.5965 27.3631C94.3035 27.9271 95.2039 28.3109 96.1837 28.4659C97.1636 28.6208 98.1791 28.5402 99.1016 28.234C100.024 27.9277 100.812 27.4098 101.366 26.7456C101.921 26.0815 102.216 25.3008 102.215 24.5025V4.22228C102.223 3.68954 102.095 3.16096 101.839 2.66915C101.583 2.17718 101.203 1.73231 100.725 1.36161C100.263 0.979364 99.7077 0.677291 99.0935 0.47432C98.4793 0.271195 97.8194 0.17148 97.1547 0.181329ZM98.4005 24.8595C98.404 24.9892 98.3741 25.1182 98.3129 25.2382C98.2515 25.3584 98.1602 25.4672 98.0443 25.5581C97.8065 25.7432 97.4867 25.8456 97.1547 25.8428C96.9936 25.8451 96.8338 25.8211 96.6847 25.7722C96.5357 25.7231 96.4007 25.6503 96.2883 25.5581C96.1654 25.4704 96.0676 25.3625 96.0012 25.242C95.9348 25.1215 95.9013 24.9912 95.9032 24.8595V3.86528C95.9016 3.73386 95.9352 3.60368 96.0016 3.4835C96.068 3.36331 96.1656 3.25575 96.2883 3.16819C96.3967 3.07016 96.5301 2.99199 96.6795 2.9389C96.8292 2.88582 96.9911 2.85904 97.1547 2.86042C97.3215 2.85996 97.4867 2.88704 97.6398 2.93998C97.7929 2.99292 97.9307 3.07063 98.0443 3.16819C98.16 3.25883 98.2515 3.36731 98.3127 3.48719C98.374 3.60721 98.4038 3.73586 98.4005 3.86528V24.8595Z" fill="black"/>
<path d="M116.287 25.1456V0.575195H106.944V12.3241C106.96 18.5122 106.336 22.7861 105.075 25.1456H103.342V32.3535H107.079V28.1294H114.221V32.3504H117.958V25.1456H116.287ZM112.549 25.1456H108.879C110.126 22.7861 110.748 18.5122 110.747 12.3241V3.57898H112.549V25.1456Z" fill="black"/>
<path d="M62.5215 52.6658V35.8867H68.9764V38.0312H64.7776V41.9272H66.219C66.8289 41.9272 67.3575 42.0509 67.8046 42.2987C68.2515 42.5465 68.6235 42.8979 68.92 43.3534C69.2167 43.8087 69.436 44.3601 69.5781 45.0073C69.72 45.6546 69.7911 46.3777 69.7911 47.1766C69.7911 48.0396 69.72 48.8105 69.5781 49.4898C69.436 50.1689 69.2167 50.7442 68.92 51.2156C68.6235 51.6871 68.2515 52.0465 67.8046 52.2943C67.3575 52.5419 66.8289 52.6658 66.219 52.6658H62.5215ZM64.7772 50.3555L65.9929 50.346C66.5359 50.346 66.8958 50.1743 67.1214 49.8306C67.3471 49.4872 67.4599 47.7838 67.4599 47.1766C67.4599 46.5694 67.3471 44.8661 67.1214 44.5226C66.8958 44.179 66.5114 44.0073 65.9683 44.0073H64.7776L64.7772 50.3555Z" fill="#0064D0"/>
<path d="M70.4902 52.6658V35.8867H76.8824V37.9667H72.7463V42.9696H76.5064V45.1035H72.7463V50.5857H76.8824V52.6658H70.4902Z" fill="#0064D0"/>
<path d="M77.2032 52.6815C77.2032 52.6815 77.1836 50.5947 77.1997 50.5917C77.2159 50.589 77.3365 50.5859 77.3782 50.5859C77.5789 50.5859 77.9183 50.1558 77.9183 50.1558C77.9183 50.1558 78.1615 49.6669 78.2493 49.1235C78.3371 48.5802 78.4018 46.5494 78.4436 45.4867C78.4854 44.4241 78.5064 42.9818 78.5064 41.1601V35.8867H85.1492V52.6658H82.8932V38.0072H80.6119V41.6395C80.6119 44.1324 80.5451 46.1219 80.4114 47.6081C80.2778 49.0943 80.0876 50.2369 79.8411 51.0358C79.5946 51.8348 79.3187 52.4337 78.9677 52.6815C78.4332 52.6815 77.2032 52.6815 77.2032 52.6815Z" fill="#0064D0"/>
<path d="M86.0723 52.6658V35.8867H91.9632V38.0312H88.3283V52.6658H86.0723Z" fill="#0064D0"/>
<path d="M92.6758 52.6658V35.8867H96.5635C97.1735 35.8867 97.702 35.8958 98.1489 36.1594C98.596 36.4231 98.9678 36.9214 99.2645 37.4088C99.5611 37.8961 99.4648 38.4955 99.6069 39.2066C99.749 39.9177 99.82 40.7206 99.82 41.6156C99.82 42.5104 99.749 43.3134 99.6069 44.0245C99.4648 44.7357 99.2455 45.335 98.949 45.8223C98.6522 46.3096 98.2804 46.6853 97.8333 46.9489C97.3864 47.2126 96.8579 47.3444 96.2479 47.3444H94.9318V52.6658H92.6758ZM94.9318 45.0247H95.9972C96.5737 45.0247 96.979 44.8408 97.2129 44.4734C97.4469 44.1057 97.564 42.3347 97.564 41.6156C97.564 40.8965 97.4469 39.1253 97.2129 38.7577C96.979 38.3902 96.5737 38.2065 95.9972 38.2065H94.9318V45.0247Z" fill="#0064D0"/>
<path d="M99.5059 52.6658L102.702 35.8867H104.958L108.154 52.6658H105.773L105.171 49.2082H102.238L101.637 52.6658H99.5059ZM102.899 47.3679L104.532 47.3737L103.705 41.1601L102.899 47.3679Z" fill="#0064D0"/>
<path d="M109.059 55.7819V50.5916H110.061C110.17 50.0642 110.575 47.9676 110.646 47.2485C110.717 46.5294 110.775 45.7654 110.82 44.9564C110.865 44.1474 110.896 43.3165 110.914 42.4635C110.932 41.6105 110.941 40.7766 110.941 39.9617L110.625 35.8867H117.068V50.5916H117.958V55.7819H116.002V52.6658H111.014V55.7819H109.059ZM112.23 50.5916H114.811L114.854 37.2757H113.089L113.047 40.441C113.047 42.3829 113.007 44.0628 112.927 45.481C112.848 46.899 112.405 49.5849 112.23 50.5916Z" fill="#0064D0"/>
<path d="M36.2759 54.0086V52.4924H59.6697V50.232H36.2759V48.7158H33.4141V54.0086H36.2759Z" fill="black"/>
<path d="M47.063 43.9234L41.9746 44.5997L33.3121 45.7512V48.0256L55.2924 45.1689C56.3834 45.1783 56.9283 45.5032 56.9273 46.1438V47.0368H59.6704V46.1438C59.695 45.4519 59.4513 44.7709 58.9726 44.1941C58.5996 43.7718 58.0938 43.4355 57.5063 43.2193C57.2146 43.1072 56.9046 43.0283 56.5856 42.9849L33.3105 40.3589V42.6779L47.063 43.9234Z" fill="black"/>
<path d="M34.8112 34.0952C33.8806 34.3484 33.415 34.917 33.4141 35.8013V39.6869H59.6697V37.4125H52.6851V35.8013C52.6851 34.9164 52.2193 34.3476 51.2878 34.0952C50.8174 33.9817 50.3304 33.9178 49.8392 33.9055C49.612 33.8972 49.3392 33.8926 49.0211 33.8926H37.0721C36.7538 33.8926 36.4856 33.8926 36.2539 33.9055C35.7649 33.9198 35.2802 33.9837 34.8112 34.0952ZM48.5785 36.1259C49.0904 36.1259 49.4424 36.2568 49.634 36.5184C49.7228 36.6366 49.7645 36.7734 49.7541 36.911V37.4125H36.339V36.911C36.3279 36.7736 36.3693 36.6366 36.4576 36.5184C36.6531 36.2568 37.0056 36.1259 37.5147 36.1259H48.5785Z" fill="black"/>
</svg>
