<svg width="40" height="40" viewBox="0 0 40 40" fill="none" xmlns="http://www.w3.org/2000/svg">
<g clip-path="url(#clip0)">
<path d="M20.0002 34.38C17.7502 36.8967 14.8369 39.4083 11.4552 39.8167L11.4519 39.8017C8.1252 41.195 1.7002 37.7383 1.7002 31.4667C1.7002 27.3167 7.02853 18.1267 12.6685 6.26833C14.1552 3.18667 15.6935 0 19.9835 0C24.3052 0 25.7769 3.045 27.5869 6.79833C38.2985 28.1533 38.2985 29.3317 38.2985 31.4667C38.3002 38.8067 29.2102 44.6833 20.0002 34.38ZM35.8002 31.4667C35.8002 28.1967 25.1685 7.525 25.0802 7.35333C23.5419 4.165 22.6169 2.5 20.0169 2.5C16.9419 2.5 16.1452 4.95333 14.6585 7.89667C4.2002 28.745 4.2002 29.8867 4.2002 31.4667C4.2002 36.4567 10.3385 41.5583 18.3435 32.48C15.0202 28.1867 13.3335 24.4983 13.3335 21.5167C13.3335 16.9533 16.6869 14.5667 20.0002 14.5667C23.3135 14.5667 26.6669 16.9533 26.6669 21.5167C26.6669 24.4983 24.9819 28.1867 21.6569 32.48C29.3269 41.1783 35.8002 36.74 35.8002 31.4667ZM20.0002 17.0667C17.9269 17.0667 15.8335 18.4433 15.8335 21.5167C15.8335 23.8083 17.2719 26.9183 20.0002 30.53C22.7285 26.9183 24.1669 23.8083 24.1669 21.5167C24.1669 18.4433 22.0735 17.0667 20.0002 17.0667Z" fill="black"/>
</g>
<defs>
<clipPath id="clip0">
<rect width="40" height="40" fill="white"/>
</clipPath>
</defs>
</svg>
