<svg width="16" height="16" viewBox="0 0 16 16" fill="none" xmlns="http://www.w3.org/2000/svg">
<g clip-path="url(#clip0)">
<path d="M14.5712 14.2866C14.9309 14.2866 15.2425 14.1679 15.5075 13.9334L10.9744 9.40015C10.8656 9.47803 10.7602 9.55376 10.6606 9.62577C10.3214 9.87571 10.0461 10.0707 9.83467 10.2105C9.62328 10.3506 9.34203 10.4933 8.99094 10.6391C8.63963 10.7851 8.31233 10.8578 8.00871 10.8578H7.99982H7.99093C7.68729 10.8578 7.35999 10.7851 7.0087 10.6391C6.65741 10.4933 6.37616 10.3506 6.16498 10.2105C5.95359 10.0707 5.67841 9.87574 5.339 9.62577C5.24442 9.55643 5.13952 9.48035 5.02611 9.39893L0.492188 13.9334C0.757085 14.1679 1.06892 14.2866 1.42855 14.2866H14.5712Z" fill="black"/>
<path d="M0.901882 6.54593C0.562678 6.31978 0.261876 6.06078 0 5.76904V12.666L3.99542 8.67057C3.19611 8.11254 2.16624 7.40514 0.901882 6.54593Z" fill="black"/>
<path d="M15.1068 6.54593C13.8907 7.36906 12.8571 8.07768 12.0059 8.67216L15.9997 12.6662V5.76904C15.7436 6.05491 15.446 6.31374 15.1068 6.54593Z" fill="black"/>
<path d="M14.5711 1.71582H1.42848C0.969972 1.71582 0.617464 1.87065 0.370519 2.17999C0.123371 2.48948 0 2.87653 0 3.3407C0 3.71564 0.16372 4.12188 0.491014 4.55956C0.818308 4.99707 1.16658 5.34072 1.53564 5.59069C1.73797 5.73364 2.34811 6.15781 3.36607 6.86306C3.91559 7.24386 4.39348 7.57577 4.80414 7.8622C5.15418 8.10609 5.45606 8.3173 5.7053 8.49259C5.73391 8.51266 5.77891 8.54484 5.83863 8.58755C5.90297 8.63376 5.9844 8.69241 6.08485 8.76495C6.27829 8.90485 6.43898 9.01793 6.56697 9.10433C6.69479 9.19075 6.84965 9.28728 7.03132 9.39447C7.21285 9.50151 7.38406 9.58201 7.54476 9.63554C7.70549 9.68905 7.85428 9.71589 7.99115 9.71589H8.00004H8.00893C8.14578 9.71589 8.2946 9.68905 8.45536 9.63554C8.61603 9.58201 8.7871 9.50169 8.96877 9.39447C9.15026 9.28728 9.30492 9.19054 9.43314 9.10433C9.56113 9.01793 9.72183 8.90488 9.9153 8.76495C10.0155 8.69241 10.097 8.63373 10.1613 8.58769C10.2211 8.54482 10.266 8.51283 10.2948 8.49259C10.489 8.35748 10.7916 8.14714 11.1984 7.86466C11.9386 7.35035 13.0287 6.59337 14.4734 5.59069C14.9079 5.28721 15.2709 4.92099 15.5626 4.49255C15.8538 4.06411 15.9998 3.61469 15.9998 3.14445C15.9998 2.75156 15.8583 2.41538 15.5758 2.13537C15.293 1.85572 14.958 1.71582 14.5711 1.71582Z" fill="black"/>
</g>
<defs>
<clipPath id="clip0">
<rect width="16" height="16" fill="white"/>
</clipPath>
</defs>
</svg>
