<svg width="16" height="16" viewBox="0 0 16 16" fill="none" xmlns="http://www.w3.org/2000/svg">
<path d="M11.5 1H4.5C2.567 1 1 2.567 1 4.5V11.5C1 13.433 2.567 15 4.5 15H11.5C13.433 15 15 13.433 15 11.5V4.5C15 2.567 13.433 1 11.5 1Z" stroke="black" stroke-linecap="round" stroke-linejoin="round"/>
<path d="M10.8002 7.55921C10.8866 8.14178 10.7871 8.73676 10.5158 9.25952C10.2446 9.78228 9.81539 10.2062 9.28932 10.471C8.76326 10.7358 8.1671 10.8279 7.58564 10.7344C7.00417 10.6408 6.46702 10.3663 6.05057 9.94982C5.63413 9.53338 5.3596 8.99622 5.26603 8.41476C5.17247 7.8333 5.26463 7.23714 5.52941 6.71107C5.7942 6.18501 6.21812 5.75583 6.74087 5.48458C7.26363 5.21333 7.85861 5.11382 8.44119 5.20021C9.03543 5.28833 9.58558 5.56524 10.0104 5.99003C10.4352 6.41482 10.7121 6.96497 10.8002 7.55921Z" stroke="black" stroke-linecap="round" stroke-linejoin="round"/>
<path d="M11.9946 4.42666C12.01 4.53069 11.9922 4.63694 11.9438 4.73028C11.8954 4.82363 11.8187 4.89933 11.7248 4.94662C11.6309 4.9939 11.5244 5.01036 11.4206 4.99365C11.3167 4.97694 11.2208 4.92792 11.1464 4.85355C11.0721 4.77919 11.0231 4.68327 11.0064 4.57943C10.9896 4.4756 11.0061 4.36915 11.0534 4.27521C11.1007 4.18127 11.1764 4.10463 11.2697 4.05619C11.3631 4.00775 11.4693 3.98998 11.5733 4.00541C11.6795 4.02114 11.7777 4.07059 11.8536 4.14645C11.9294 4.2223 11.9789 4.32054 11.9946 4.42666Z" stroke="black" stroke-linecap="round" stroke-linejoin="round"/>
</svg>
