<svg width="124" height="73" viewBox="0 0 124 73" fill="none" xmlns="http://www.w3.org/2000/svg">
<path d="M44.0604 4.67313V35.9974H47.8709V0.840298H37.2105L37.2332 35.9974L41.0891 36.0202V4.67313H44.0604Z" fill="black"/>
<path d="M56.6033 4.67313V0.840298H49.005V35.9974H56.6033V32.1646H52.8155V20.3467H56.6033V16.5139H52.8155V4.67313H56.6033Z" fill="black"/>
<path d="M68.4205 0.634967H68.3978V0.612153L64.5419 0.634967L64.5192 32.1874H61.6387V0.612153L57.7828 0.634967L57.7601 36.0202H75.1796V0.634967H71.3691V32.1874H68.4205V0.634967Z" fill="black"/>
<path d="M83.912 4.67313V0.840298H76.3137V35.9974H83.912V32.1646H80.1242V20.3467H83.912V16.5139H80.1242V4.67313H83.912Z" fill="black"/>
<path d="M96.0467 35.9974L92.463 18.4075L96.0467 0.840298H92.2589L90.5577 10.3311L88.8793 0.840298H85.0688L88.6525 18.4303L85.0688 35.9974H88.8793L90.5577 26.5066L92.2589 35.9974H96.0467Z" fill="black"/>
<path d="M101.037 5.03816C101.037 4.68834 101.165 4.39175 101.422 4.1484C101.664 3.88983 101.959 3.76055 102.307 3.76055C102.655 3.76055 102.957 3.88983 103.214 4.1484C103.456 4.39175 103.577 4.68834 103.577 5.03816V31.8224C103.577 32.1722 103.456 32.4688 103.214 32.7121C102.957 32.9555 102.655 33.0772 102.307 33.0772C101.959 33.0772 101.664 32.9555 101.422 32.7121C101.165 32.4688 101.037 32.1722 101.037 31.8224V5.03816ZM102.307 0.338379C100.901 0.338379 99.6909 0.840298 98.6778 1.84414C97.6798 2.86318 97.1808 4.07996 97.1808 5.49445V31.3661C97.1808 32.7806 97.6798 33.9974 98.6778 35.0164C99.6909 36.0202 100.901 36.5222 102.307 36.5222C103.728 36.5222 104.938 36.0202 105.936 35.0164C106.949 33.9974 107.456 32.7806 107.456 31.3661V5.49445C107.456 4.07996 106.949 2.86318 105.936 1.84414C104.938 0.840298 103.728 0.338379 102.307 0.338379Z" fill="black"/>
<path d="M108.612 32.1874V41.3816H112.423V35.9974H119.704V41.3816H123.514V32.1874H121.813V0.840298H112.287V15.8294C112.302 23.7232 111.667 29.1759 110.381 32.1874H108.612ZM114.26 32.1874C115.53 29.1759 116.165 23.7232 116.165 15.8294V4.67313H118.003V32.1874H114.26Z" fill="black"/>
<path d="M46.079 37.1812H37.2105V41.0141H39.7509V72.3384H43.5387V41.0141H46.079V37.1812Z" fill="black"/>
<path d="M54.1083 55.4557L51.0463 37.0444H47.2358L52.0216 66.4751C52.0065 67.9352 51.4622 68.6652 50.3886 68.6652H48.8916V72.3384H50.3886C51.6587 72.3384 52.7475 72.0266 53.6547 71.403C54.3654 70.9011 54.9098 70.247 55.2878 69.4409C55.4844 69.0151 55.6129 68.6044 55.6734 68.209L60.0736 37.0444H56.1951L54.1083 55.4557Z" fill="black"/>
<path d="M67.173 57.4861C67.173 58.1706 66.9537 58.6421 66.5152 58.9006C66.3035 59.0223 66.0843 59.0756 65.8574 59.0603H65.0182V41.1053H65.8574C66.0843 41.0901 66.3035 41.1434 66.5152 41.265C66.9537 41.5236 67.173 41.9951 67.173 42.6795V57.4861ZM70.9154 42.0864C70.9154 41.6605 70.9079 41.2955 70.8928 40.9913C70.8474 40.2004 70.7415 39.554 70.5752 39.052C70.1518 37.8048 69.1992 37.1812 67.7173 37.1812H61.2077V72.3384H65.0182V62.9844H67.7173C69.1992 62.9844 70.1518 62.3608 70.5752 61.1136C70.7415 60.6269 70.8474 59.9805 70.8928 59.1744C70.9079 58.8702 70.9154 58.5052 70.9154 58.0793V42.0864Z" fill="black"/>
<path d="M0.51416 0.619758H32.1273V72.0038H0.51416V0.619758Z" fill="black"/>
</svg>
