<svg width="20" height="20" viewBox="0 0 20 20" fill="none" xmlns="http://www.w3.org/2000/svg">
<path d="M17.3734 12.3795L13.6929 10.7303L13.6828 10.7256C13.4917 10.6439 13.2833 10.6111 13.0763 10.6302C12.8694 10.6493 12.6705 10.7197 12.4976 10.835C12.4772 10.8484 12.4577 10.863 12.439 10.8787L10.5375 12.4998C9.33277 11.9147 8.08902 10.6803 7.50386 9.49125L9.1273 7.56078C9.14293 7.54125 9.15777 7.52172 9.17183 7.50062C9.28467 7.3282 9.35313 7.13056 9.37112 6.92529C9.38911 6.72002 9.35608 6.51348 9.27496 6.32406V6.31469L7.62105 2.62797C7.51382 2.38052 7.32943 2.17438 7.09542 2.04034C6.8614 1.9063 6.59031 1.85153 6.32261 1.88422C5.264 2.02352 4.29229 2.54341 3.58897 3.34679C2.88565 4.15017 2.49883 5.1821 2.50074 6.24984C2.50074 12.453 7.54761 17.4998 13.7507 17.4998C14.8185 17.5018 15.8504 17.1149 16.6538 16.4116C17.4572 15.7083 17.9771 14.7366 18.1164 13.678C18.1491 13.4104 18.0945 13.1393 17.9606 12.9053C17.8267 12.6713 17.6207 12.4869 17.3734 12.3795ZM13.7507 16.2498C11.0995 16.2469 8.55761 15.1924 6.68287 13.3177C4.80813 11.443 3.75363 8.90112 3.75074 6.24984C3.7478 5.48694 4.02265 4.74906 4.52397 4.17399C5.02529 3.59892 5.71879 3.22599 6.47496 3.12484C6.47465 3.12796 6.47465 3.1311 6.47496 3.13422L8.11558 6.80609L6.50074 8.7389C6.48432 8.75774 6.46942 8.77785 6.45621 8.79906C6.33864 8.97947 6.26967 9.18718 6.25599 9.40208C6.2423 9.61697 6.28436 9.83176 6.37808 10.0256C7.0859 11.4733 8.54449 12.9209 10.0078 13.628C10.2031 13.7208 10.4191 13.7614 10.6348 13.7458C10.8504 13.7302 11.0584 13.6589 11.2382 13.5389C11.2583 13.5255 11.2776 13.5108 11.2961 13.4952L13.1953 11.8748L16.8671 13.5194H16.8757C16.7758 14.2766 16.4035 14.9715 15.8283 15.4741C15.2531 15.9766 14.5145 16.2524 13.7507 16.2498Z" fill="black"/>
</svg>
