<svg width="17" height="15" viewBox="0 0 17 15" fill="none" xmlns="http://www.w3.org/2000/svg">
<path d="M0.796657 7.33169L4.48369 8.71419L5.90988 13.3266C5.93019 13.3946 5.96713 13.4565 6.01741 13.5069C6.06768 13.5573 6.12973 13.5945 6.198 13.6152C6.26628 13.636 6.33865 13.6396 6.40866 13.6257C6.47867 13.6118 6.54414 13.581 6.59922 13.5358L8.6542 11.8514C8.87032 11.6755 9.17679 11.6663 9.40222 11.8302L13.1088 14.535C13.3631 14.722 13.7255 14.5813 13.7888 14.2711L16.5043 1.14421C16.5209 1.06786 16.5165 0.988453 16.4914 0.914401C16.4664 0.840349 16.4217 0.774404 16.362 0.723545C16.3023 0.672686 16.23 0.638804 16.1525 0.625485C16.0751 0.612166 15.9955 0.619905 15.9221 0.647884L0.791999 6.51404C0.419383 6.65942 0.422178 7.19001 0.796657 7.33169ZM5.68072 7.97803L12.8853 3.51753C13.0157 3.43789 13.1479 3.61383 13.0371 3.71754L7.09107 9.27349C6.88148 9.46795 6.7464 9.73 6.70914 10.0143L6.50607 11.5236C6.47905 11.7246 6.19773 11.745 6.14276 11.5496L5.36307 8.79846C5.31949 8.64605 5.3268 8.48371 5.38391 8.33578C5.44101 8.18786 5.54483 8.06233 5.67979 7.97803H5.68072Z" fill="black"/>
</svg>
