<svg width="23" height="23" viewBox="0 0 23 23" fill="none" xmlns="http://www.w3.org/2000/svg">
<g clip-path="url(#clip0)">
<path d="M13.9956 5.30532C14.6097 5.39214 15.211 5.54637 15.8051 5.72895C16.8423 6.04835 17.8211 6.49208 18.7415 7.06771C18.8056 7.10744 18.8911 7.13266 18.9665 7.13266C20.0477 7.13713 21.1285 7.13556 22.2087 7.13646C22.2958 7.13646 22.3824 7.14561 22.4692 7.15052C22.4692 7.17172 22.4723 7.18065 22.4688 7.18556C22.4183 7.26323 22.3672 7.33979 22.3166 7.41724C21.9498 7.97971 21.6365 8.56806 21.4514 9.21847C21.4313 9.28833 21.4271 9.34681 21.4744 9.41533C22.4369 10.7974 22.744 12.3147 22.3418 13.9503C21.9891 15.3848 21.1668 16.5033 19.9174 17.2952C19.0243 17.8615 18.0378 18.1311 16.9838 18.1369C16.541 18.1396 16.1004 18.08 15.6678 17.9679C14.6139 17.6945 13.7104 17.1691 12.9658 16.3734C12.8676 16.2689 12.7752 16.1598 12.6705 16.0417C12.2768 16.6285 11.8893 17.2057 11.4924 17.7981C11.0971 17.2075 10.715 16.6359 10.3338 16.0665C10.3075 16.0803 10.2999 16.0819 10.2947 16.0868C10.286 16.0939 10.2787 16.1027 10.2717 16.1109C9.37113 17.1745 8.23817 17.8264 6.85789 18.0445C6.09008 18.1661 5.32964 18.1224 4.58392 17.9168C3.52707 17.6264 2.62891 17.0689 1.90328 16.2462C1.19418 15.4418 0.753131 14.5079 0.587516 13.4461C0.398019 12.4551 0.628808 11.4996 0.686394 11.2677C0.853348 10.5936 1.1444 9.97468 1.54393 9.40551C1.57205 9.36511 1.58188 9.29369 1.56848 9.24548C1.40555 8.64797 1.12476 8.10448 0.795986 7.58397C0.712509 7.45161 0.612515 7.32908 0.520109 7.20208C0.520109 7.18757 0.520109 7.17261 0.520109 7.15788C0.538635 7.16011 0.556938 7.16369 0.575017 7.16369C1.6812 7.16413 2.78716 7.16458 3.89334 7.16235C3.94155 7.16235 3.99512 7.14248 4.03619 7.11614C4.81338 6.61751 5.64145 6.22245 6.51149 5.91488C7.1389 5.69346 7.77949 5.52071 8.4328 5.39415C9.06535 5.27184 9.70125 5.18568 10.3438 5.14327C11.9105 5.02274 13.1626 5.18858 13.9956 5.30532ZM12.6089 12.6109C12.6089 15.04 14.5797 17.0245 17.0001 17.0151C19.4297 17.0064 21.3916 15.0777 21.3898 12.6218C21.388 10.091 19.335 8.1884 16.9059 8.23773C14.5079 8.2875 12.6308 10.2204 12.6089 12.6109ZM6.02201 8.22099C3.6592 8.20045 1.59906 10.1724 1.64035 12.6843C1.67874 15.0268 3.60943 17.0126 6.07111 16.9914C8.47811 16.9709 10.4128 15.0054 10.4173 12.6252C10.4211 10.1798 8.46271 8.22099 6.02201 8.22099ZM6.23985 7.07508C7.57459 7.15654 8.74706 7.62169 9.73763 8.52253C10.7262 9.42158 11.3054 10.5432 11.5159 11.8621C11.7324 10.5588 12.2964 9.4477 13.2664 8.55757C14.238 7.66656 15.3949 7.19895 16.7077 7.10007C15.1498 6.40748 13.507 6.1133 11.8161 6.08072C9.89432 6.043 8.02501 6.32624 6.23985 7.07508Z" fill="black"/>
<path d="M16.9913 9.83975C18.4946 9.8373 19.7121 11.0484 19.7121 12.5501C19.7121 14.0576 18.5153 15.2229 17.1034 15.2767C15.5264 15.3372 14.2647 14.0808 14.2651 12.5568C14.2665 11.0154 15.5372 9.81431 16.9913 9.83975ZM18.7644 12.5568C18.7637 11.5769 17.9716 10.7805 16.9985 10.7805C16.0141 10.7805 15.2128 11.5727 15.2088 12.5496C15.2053 13.5223 16.0106 14.3317 16.9857 14.3344C17.9625 14.3381 18.7649 13.5348 18.7644 12.5568Z" fill="black"/>
<path d="M5.96394 9.83953C7.46631 9.83796 8.68565 11.0513 8.68186 12.5528C8.67762 14.0725 7.4797 15.2124 6.09251 15.2756C4.50934 15.3479 3.23197 14.0859 3.23487 12.5536C3.23799 11.0013 4.51738 9.81364 5.96394 9.83953ZM7.73504 12.5505C7.73214 11.5646 6.93487 10.7788 5.93961 10.7805C4.97963 10.7823 4.17521 11.5925 4.17744 12.5561C4.1799 13.5308 4.98342 14.3323 5.96126 14.335C6.93308 14.3372 7.7375 13.5279 7.73504 12.5505Z" fill="black"/>
<path d="M16.9927 11.6548C17.4908 11.6543 17.8993 12.063 17.8946 12.5583C17.8897 13.0547 17.4882 13.4569 16.9982 13.4571C16.4938 13.4571 16.0882 13.0585 16.0894 12.5646C16.0903 12.0521 16.4842 11.6552 16.9927 11.6548Z" fill="black"/>
<path d="M5.95908 11.6467C6.46486 11.6463 6.87131 12.0503 6.87332 12.5545C6.87532 13.0545 6.46508 13.4649 5.96176 13.466C5.44639 13.4672 5.04887 13.069 5.04932 12.5509C5.04932 12.0422 5.44594 11.6474 5.95908 11.6467Z" fill="black"/>
</g>
<defs>
<clipPath id="clip0">
<rect x="0.51416" y="0.619141" width="22" height="22" fill="white"/>
</clipPath>
</defs>
</svg>
