<svg width="32" height="32" viewBox="0 0 32 32" fill="none" xmlns="http://www.w3.org/2000/svg">
<path d="M30.7666 17.6073C30.5357 13.8665 28.9065 10.3819 26.1791 7.79536C23.6042 5.35355 20.2789 3.9341 16.7531 3.75679V2.77454C16.7531 2.35848 16.4159 2.02122 15.9998 2.02122C15.5838 2.02122 15.2465 2.35848 15.2465 2.77454V3.75679C11.7227 3.93398 8.39884 5.35211 5.82465 7.79124C3.09796 10.3749 1.46758 13.8564 1.23389 17.5946C1.21626 17.8773 1.35851 18.1459 1.60233 18.29C1.84602 18.4342 2.15008 18.4295 2.38914 18.2778C3.30433 17.6975 4.36446 17.3907 5.4549 17.3907C6.97753 17.3907 8.40978 17.9795 9.49072 19.0493C9.63778 19.2106 9.84153 19.2948 10.0476 19.2948C10.1933 19.2948 10.3401 19.2526 10.4687 19.1659L10.482 19.157C10.4872 19.1534 10.4923 19.1499 10.4974 19.1462C11.884 18.159 13.485 17.5731 15.1694 17.4278V28.9947C15.1694 30.6518 16.5175 31.9999 18.1745 31.9999C19.8316 31.9999 21.1797 30.6518 21.1797 28.9947C21.1797 28.5787 20.8425 28.2414 20.4264 28.2414C20.0104 28.2414 19.6731 28.5787 19.6731 28.9947C19.6731 29.821 19.0009 30.4933 18.1745 30.4933C17.3482 30.4933 16.676 29.821 16.676 28.9947V17.4151C18.4226 17.5364 20.0812 18.1266 21.5081 19.1425C21.8071 19.3555 22.2161 19.3217 22.4765 19.0626C23.5594 17.9845 24.9975 17.3906 26.5259 17.3906C27.6228 17.3906 28.6891 17.7011 29.6093 18.2886C29.8482 18.4412 30.1526 18.4466 30.3968 18.3028C30.6411 18.1591 30.784 17.8903 30.7666 17.6073ZM9.26009 16.9621C8.12772 16.2606 6.82046 15.8841 5.45496 15.8841C4.5714 15.8841 3.70333 16.0438 2.88902 16.3521C3.35789 13.5081 4.74015 10.8943 6.86084 8.88487C8.44003 7.38855 10.3335 6.3208 12.3835 5.74305C11.9003 6.33992 11.4553 7.0628 11.0593 7.90405C9.90941 10.3467 9.27184 13.5603 9.26009 16.9621ZM16.0005 15.8841C14.1522 15.8841 12.3668 16.3379 10.7672 17.2055C10.7668 17.1563 10.7662 17.1072 10.7662 17.058C10.7662 13.8378 11.3544 10.8147 12.4224 8.54555C13.3941 6.48117 14.6772 5.27786 15.9435 5.24398C15.9618 5.24355 15.9809 5.24361 15.9997 5.24361C16.0187 5.24361 16.0376 5.24355 16.0569 5.24405C17.322 5.2778 18.6048 6.48111 19.5765 8.54549C20.6446 10.8147 21.2327 13.8378 21.2327 17.058C21.2327 17.1126 21.2366 17.1608 21.2427 17.2051C19.6434 16.3379 17.8549 15.8841 16.0005 15.8841ZM26.5259 15.8841C25.1679 15.8841 23.8672 16.2568 22.7387 16.9512C22.7256 13.5534 22.0882 10.3442 20.9397 7.90399C20.5437 7.06261 20.0987 6.33974 19.6154 5.74286C21.6672 6.32111 23.5622 7.39018 25.1424 8.88862C27.2629 10.8996 28.6444 13.5147 29.1118 16.3598C28.2914 16.0464 27.4165 15.8841 26.5259 15.8841Z" fill="black"/>
<path d="M30.7666 17.6073C30.5357 13.8665 28.9065 10.3819 26.1791 7.79536C23.6042 5.35355 20.2789 3.9341 16.7531 3.75679V2.77454C16.7531 2.35848 16.4159 2.02122 15.9998 2.02122C15.5838 2.02122 15.2465 2.35848 15.2465 2.77454V3.75679C11.7227 3.93398 8.39884 5.35211 5.82465 7.79124C3.09796 10.3749 1.46758 13.8564 1.23389 17.5946C1.21626 17.8773 1.35851 18.1459 1.60233 18.29C1.84602 18.4342 2.15008 18.4295 2.38914 18.2778C3.30433 17.6975 4.36446 17.3907 5.4549 17.3907C6.97753 17.3907 8.40978 17.9795 9.49072 19.0493C9.63778 19.2106 9.84153 19.2948 10.0476 19.2948C10.1933 19.2948 10.3401 19.2526 10.4687 19.1659L10.482 19.157C10.4872 19.1534 10.4923 19.1499 10.4974 19.1462C11.884 18.159 13.485 17.5731 15.1694 17.4278V28.9947C15.1694 30.6518 16.5175 31.9999 18.1745 31.9999C19.8316 31.9999 21.1797 30.6518 21.1797 28.9947C21.1797 28.5787 20.8425 28.2414 20.4264 28.2414C20.0104 28.2414 19.6731 28.5787 19.6731 28.9947C19.6731 29.821 19.0009 30.4933 18.1745 30.4933C17.3482 30.4933 16.676 29.821 16.676 28.9947V17.4151C18.4226 17.5364 20.0812 18.1266 21.5081 19.1425C21.8071 19.3555 22.2161 19.3217 22.4765 19.0626C23.5594 17.9845 24.9975 17.3906 26.5259 17.3906C27.6228 17.3906 28.6891 17.7011 29.6093 18.2886C29.8482 18.4412 30.1526 18.4466 30.3968 18.3028C30.6411 18.1591 30.784 17.8903 30.7666 17.6073ZM16.0005 15.8841C14.1522 15.8841 12.3668 16.3379 10.7672 17.2055C10.7668 17.1563 10.7662 17.1072 10.7662 17.058C10.7662 13.8378 11.3544 10.8147 12.4224 8.54555C13.3941 6.48117 14.6772 5.27786 15.9435 5.24398C15.9618 5.24355 15.9809 5.24361 15.9997 5.24361C16.0187 5.24361 16.0376 5.24355 16.0569 5.24405C17.322 5.2778 18.6048 6.48111 19.5765 8.54549C20.6446 10.8147 21.2327 13.8378 21.2327 17.058C21.2327 17.1126 21.2366 17.1608 21.2427 17.2051C19.6434 16.3379 17.8549 15.8841 16.0005 15.8841Z" fill="black"/>
</svg>
