<svg width="17" height="10" viewBox="0 0 17 10" fill="none" xmlns="http://www.w3.org/2000/svg">
<path fill-rule="evenodd" clip-rule="evenodd" d="M14.5618 6.54488C15.0925 7.05993 15.6527 7.54452 16.1287 8.11152C16.339 8.36348 16.5381 8.62349 16.6904 8.91589C16.9062 9.33156 16.7107 9.78898 16.3357 9.8138L14.0048 9.81276C13.4036 9.86235 12.924 9.62177 12.5208 9.21321C12.1981 8.88648 11.8992 8.53873 11.5889 8.20097C11.4617 8.06292 11.3285 7.93302 11.1694 7.83034C10.8512 7.62504 10.575 7.6879 10.3932 8.01777C10.208 8.35329 10.166 8.72481 10.1478 9.09873C10.1228 9.6443 9.95692 9.78773 9.40557 9.81271C8.22728 9.86794 7.10903 9.69075 6.07021 9.09993C5.15434 8.57907 4.44413 7.84377 3.82597 7.01134C2.6224 5.39041 1.7007 3.60927 0.872309 1.77823C0.685846 1.36569 0.822211 1.14425 1.28014 1.13641C2.04056 1.12173 2.80087 1.12277 3.56218 1.13536C3.87123 1.13986 4.07583 1.31605 4.19516 1.60626C4.60657 2.61176 5.10998 3.56841 5.74186 4.45513C5.91013 4.69121 6.08172 4.92729 6.32606 5.09345C6.59637 5.27743 6.80218 5.21646 6.92935 4.91715C7.01004 4.72737 7.04537 4.52296 7.06356 4.31969C7.1238 3.6204 7.13174 2.9223 7.02608 2.22546C6.96121 1.79056 6.71476 1.50902 6.27817 1.42672C6.05538 1.38477 6.08855 1.30236 6.19643 1.17596C6.38378 0.957966 6.56 0.822266 6.91126 0.822266H9.54557C9.96029 0.903623 10.0524 1.08881 10.1092 1.50359L10.1114 4.41213C10.1069 4.5727 10.1921 5.04919 10.4831 5.15548C10.716 5.23114 10.8695 5.04595 11.0092 4.89918C11.6399 4.23379 12.0901 3.44744 12.4922 2.63319C12.6707 2.27515 12.8242 1.90332 12.9729 1.5318C13.0831 1.25612 13.256 1.12047 13.5684 1.12648L16.1037 1.12873C16.1789 1.12873 16.255 1.12982 16.3278 1.14221C16.755 1.21458 16.8721 1.39725 16.7402 1.81193C16.5322 2.46253 16.1277 3.0047 15.7322 3.54939C15.3094 4.13091 14.8572 4.69252 14.4379 5.27749C14.0527 5.81167 14.0832 6.08092 14.5618 6.54488Z" fill="white"/>
</svg>
