<svg xmlns="http://www.w3.org/2000/svg" viewBox="0 0 707.39 569.32"><defs><style>.cls-1{fill:#0064D0;}</style></defs><g id="design" fill="white"><polygon points="287.54 384.32 287.54 224.65 302.67 224.65 302.67 384.21 322.08 384.21 322.08 205.12 267.78 205.12 267.89 384.21 287.54 384.32"/><polygon points="366.56 364.68 347.27 364.68 347.27 304.48 366.56 304.48 366.56 284.96 347.27 284.96 347.27 224.65 366.56 224.65 366.56 205.12 327.86 205.12 327.86 384.21 366.56 384.21 366.56 364.68"/><polygon points="441.78 364.8 426.76 364.8 426.76 204.08 426.64 204.08 426.64 203.96 407 204.08 406.88 364.8 392.21 364.8 392.21 203.96 372.57 204.08 372.45 384.32 461.19 384.32 461.19 204.08 441.78 204.08 441.78 364.8"/><polygon points="466.96 384.21 505.67 384.21 505.67 364.68 486.37 364.68 486.37 304.48 505.67 304.48 505.67 284.96 486.37 284.96 486.37 224.65 505.67 224.65 505.67 205.12 466.96 205.12 466.96 384.21"/><polygon points="548.18 205.12 539.52 253.47 530.97 205.12 511.56 205.12 529.81 294.72 511.56 384.21 530.97 384.21 539.52 335.86 548.18 384.21 567.48 384.21 549.22 294.61 567.48 205.12 548.18 205.12"/><path d="M599.37,202.57a25.32,25.32,0,0,0-18.49,7.67,25.64,25.64,0,0,0-7.62,18.59V360.62a25.65,25.65,0,0,0,7.62,18.59,25.36,25.36,0,0,0,18.49,7.67,25.09,25.09,0,0,0,18.48-7.67,25.45,25.45,0,0,0,7.74-18.59V228.83a25.44,25.44,0,0,0-7.74-18.59A25.06,25.06,0,0,0,599.37,202.57Zm6.47,160.37a6.19,6.19,0,0,1-1.85,4.53,6.5,6.5,0,0,1-4.62,1.86,6.12,6.12,0,0,1-4.51-1.86,6,6,0,0,1-2-4.53V226.51a6.74,6.74,0,0,1,6.48-6.51,6.33,6.33,0,0,1,4.62,2,6.2,6.2,0,0,1,1.85,4.54Z"/><path d="M698.73,364.8V205.12H650.21v76.35q.1,60.31-9.71,83.33h-9v46.83H650.9V384.21H688v27.42h19.41V364.8Zm-19.41,0H660.26q9.69-23,9.7-83.33V224.65h9.36Z"/><polygon points="267.78 409.76 280.72 409.76 280.72 569.32 300.01 569.32 300.01 409.76 312.95 409.76 312.95 390.24 267.78 390.24 267.78 409.76"/><path d="M353.85,483.32l-15.59-93.78H318.85l24.37,149.91q-.11,11.16-8.32,11.16h-7.62v18.71h7.62a28.7,28.7,0,0,0,16.64-4.76,25.06,25.06,0,0,0,8.32-10,23.26,23.26,0,0,0,2-6.27l22.42-158.75H364.48Z"/><path d="M437.73,399.77q-3.23-9.54-14.56-9.53H390V569.32h19.41V521.67h13.74q11.32,0,14.56-9.53a37.76,37.76,0,0,0,1.62-9.87q.12-2.32.12-5.58V415.22q0-3.25-.12-5.58A39,39,0,0,0,437.73,399.77Zm-17.33,93.9q0,5.22-3.35,7.2a5.88,5.88,0,0,1-3.35.82h-4.27V410.23h4.27a5.79,5.79,0,0,1,3.35.81q3.34,2,3.35,7.2Z"/><rect x="80.53" y="205.07" width="161.03" height="363.62"/><path class="cls-1" d="M321.78,173.91c0-87-69.39-158.07-155.73-160.81V0h-10V13.09C69.56,15.66,0,86.81,0,173.91v5H156.05V365a15.13,15.13,0,0,1-30.26,0h-10a25.13,25.13,0,0,0,50.26,0v-186H321.78Zm-311.7-5C12.73,88,79.36,23,160.89,23S309.06,88,311.7,168.91Z"/></g></svg>